<svg preserveAspectRatio="none" width="100%" height="100%" overflow="visible" style="display: block;" viewBox="0 0 13.9971 13.335" fill="none" xmlns="http://www.w3.org/2000/svg">
<path id="icon" d="M13.9711 5.04833C13.9111 4.86833 13.7578 4.735 13.5711 4.70833L9.33781 4.08833L7.44448 0.255C7.27781 -0.085 6.71781 -0.085 6.55115 0.255L4.65781 4.08833L0.424481 4.70833C0.237814 4.735 0.0778143 4.86833 0.024481 5.04833C-0.035519 5.22833 0.0178143 5.42833 0.151148 5.56167L3.21115 8.54167L2.49115 12.7483C2.45781 12.935 2.53781 13.1283 2.69115 13.235C2.84448 13.3483 3.05115 13.3617 3.21781 13.275L7.00448 11.2883L10.7911 13.275C10.8645 13.315 10.9445 13.335 11.0245 13.335C11.1311 13.335 11.2311 13.3017 11.3178 13.2417C11.4711 13.1283 11.5511 12.9417 11.5178 12.755L10.7978 8.54833L13.8578 5.56833C13.9845 5.42833 14.0311 5.22833 13.9711 5.04833Z" fill="var(--fill-0, #22A06B)"/>
</svg>
