<svg preserveAspectRatio="none" width="100%" height="100%" overflow="visible" style="display: block;" viewBox="0 0 18 20" fill="none" xmlns="http://www.w3.org/2000/svg">
<path id="icon" fill-rule="evenodd" clip-rule="evenodd" d="M13.6912 4H16.25C16.6442 4 16.9711 4.30515 16.9982 4.6984L17.9982 19.1984C18.0125 19.4058 17.9401 19.6098 17.7983 19.7618C17.6564 19.9137 17.4579 20 17.25 20H0.750002C0.542126 20 0.343575 19.9137 0.201731 19.7618C0.0598878 19.6098 -0.0125232 19.4058 0.00177905 19.1984L1.00178 4.6984C1.0289 4.30515 1.35582 4 1.75 4H4.30882C4.66819 1.73241 6.631 0 9 0C11.369 0 13.3318 1.73241 13.6912 4ZM5.83686 4H12.1631C11.8248 2.56615 10.5376 1.5 9 1.5C7.46237 1.5 6.17517 2.56615 5.83686 4ZM12.25 7.25V5.5H5.75V7.25C5.75 7.66421 5.41421 8 5 8C4.58579 8 4.25 7.66421 4.25 7.25V5.5H2.45006L1.55351 18.5H16.4465L15.5499 5.5H13.75V7.25C13.75 7.66421 13.4142 8 13 8C12.5858 8 12.25 7.66421 12.25 7.25Z" fill="var(--fill-0, #282C3F)"/>
</svg>
