<svg preserveAspectRatio="none" width="100%" height="100%" overflow="visible" style="display: block;" viewBox="0 0 30.1745 30.1745" fill="none" xmlns="http://www.w3.org/2000/svg">
<path id="Star 1" d="M14.1586 1.63716C14.4776 0.775092 15.6971 0.775084 16.0161 1.63716L18.9243 9.49555C19.2252 10.3086 19.8661 10.9496 20.6791 11.2504L28.5375 14.1586C29.3996 14.4776 29.3996 15.6971 28.5375 16.0161L20.6791 18.9243C19.8661 19.2251 19.2251 19.8661 18.9243 20.6791L16.0161 28.5375C15.6971 29.3996 14.4776 29.3996 14.1586 28.5375L11.2504 20.6791C10.9496 19.8661 10.3086 19.2252 9.49555 18.9243L1.63716 16.0161C0.775092 15.6971 0.775084 14.4776 1.63716 14.1586L9.49555 11.2504C10.3086 10.9496 10.9496 10.3086 11.2504 9.49555L14.1586 1.63716Z" fill="var(--fill-0, white)" stroke="var(--stroke-0, #FFF5F8)" stroke-width="1.98036"/>
</svg>
