<svg preserveAspectRatio="none" width="100%" height="100%" overflow="visible" style="display: block;" viewBox="0 0 8.74818 8.33438" fill="none" xmlns="http://www.w3.org/2000/svg">
<path id="icon" d="M8.73197 3.15521C8.69447 3.04271 8.59863 2.95938 8.48197 2.94271L5.83613 2.55521L4.6528 0.159375C4.54863 -0.053125 4.19863 -0.053125 4.09447 0.159375L2.91113 2.55521L0.265301 2.94271C0.148634 2.95938 0.0486339 3.04271 0.0153006 3.15521C-0.0221994 3.26771 0.0111339 3.39271 0.0944673 3.47604L2.00697 5.33854L1.55697 7.96771C1.53613 8.08438 1.58613 8.20521 1.68197 8.27188C1.7778 8.34271 1.90697 8.35104 2.01113 8.29688L4.3778 7.05521L6.74447 8.29688C6.7903 8.32188 6.8403 8.33438 6.8903 8.33438C6.95697 8.33438 7.01947 8.31354 7.07363 8.27604C7.16947 8.20521 7.21947 8.08854 7.19863 7.97188L6.74863 5.34271L8.66113 3.48021C8.7403 3.39271 8.76947 3.26771 8.73197 3.15521Z" fill="var(--fill-0, #22A06B)"/>
</svg>
