<svg preserveAspectRatio="none" width="100%" height="100%" overflow="visible" style="display: block;" viewBox="0 0 6.40066 6.40066" fill="none" xmlns="http://www.w3.org/2000/svg">
<path id="Star 2" d="M2.80636 0.274294C2.94169 -0.0914313 3.45897 -0.0914316 3.5943 0.274294L4.21115 1.94132C4.2537 2.0563 4.34436 2.14696 4.45934 2.18951L6.12636 2.80636C6.49209 2.94169 6.49209 3.45897 6.12637 3.5943L4.45934 4.21115C4.34436 4.2537 4.2537 4.34436 4.21115 4.45934L3.5943 6.12636C3.45897 6.49209 2.94169 6.49209 2.80636 6.12637L2.18951 4.45934C2.14696 4.34436 2.0563 4.2537 1.94132 4.21115L0.274294 3.5943C-0.0914313 3.45897 -0.0914316 2.94169 0.274294 2.80636L1.94132 2.18951C2.0563 2.14696 2.14696 2.0563 2.18951 1.94132L2.80636 0.274294Z" fill="var(--fill-0, #FFF5F8)"/>
</svg>
