<svg preserveAspectRatio="none" width="100%" height="100%" overflow="visible" style="display: block;" viewBox="0 0 14.4693 10.154" fill="none" xmlns="http://www.w3.org/2000/svg">
<g id="Group 3">
<path id="Path" d="M7.24245 7.04646C7.89179 7.04646 8.52273 7.21709 9.07867 7.54244L9.30392 7.67426C9.47469 7.7742 9.50473 8.0081 9.36471 8.14772L7.44149 10.0656C7.32336 10.1834 7.13183 10.1834 7.0137 10.0656L5.10283 8.16005C4.96344 8.02104 4.99249 7.78833 5.16182 7.68766L5.38454 7.55523C5.94559 7.22164 6.58454 7.04646 7.24245 7.04646Z" fill="var(--fill-0, black)"/>
<path id="Path_2" d="M7.24241 3.52335C8.85772 3.52335 10.4086 4.05921 11.6721 5.05157L11.8506 5.19181C11.993 5.30363 12.0055 5.51431 11.8774 5.64209L10.7292 6.78707C10.623 6.89298 10.4549 6.90514 10.3345 6.81564L10.1946 6.71162C9.34124 6.07743 8.31229 5.73725 7.24241 5.73725C6.16594 5.73725 5.13098 6.08166 4.27483 6.72313L4.13472 6.82811C4.01429 6.91834 3.84564 6.90646 3.73912 6.80024L2.59137 5.65567C2.46351 5.52817 2.47565 5.31801 2.61735 5.20599L2.79489 5.06563C4.06133 4.06443 5.61931 3.52335 7.24241 3.52335Z" fill="var(--fill-0, black)"/>
<path id="Path_3" d="M7.24246 0.000112653C9.80599 0.000112653 12.2575 0.904386 14.1979 2.56187L14.3635 2.70335C14.4974 2.81769 14.5053 3.02147 14.3806 3.14575L13.2362 4.28702C13.1253 4.39759 12.9481 4.40533 12.8279 4.30487L12.6862 4.18638C11.1585 2.90891 9.24361 2.21401 7.24246 2.21401C5.23449 2.21401 3.31348 2.91369 1.78344 4.19915L1.64168 4.31825C1.52155 4.41917 1.34395 4.41161 1.23288 4.30085L0.0885997 3.15975C-0.03585 3.03565 -0.028191 2.8322 0.10524 2.71776L0.270237 2.57623C2.21306 0.909786 4.67134 0.000112653 7.24246 0.000112653Z" fill="var(--fill-0, black)"/>
</g>
</svg>
