<svg preserveAspectRatio="none" width="100%" height="100%" overflow="visible" style="display: block;" viewBox="0 0 15 16.6667" fill="none" xmlns="http://www.w3.org/2000/svg">
<path id="icon" fill-rule="evenodd" clip-rule="evenodd" d="M11.4093 3.33333H13.5417C13.8702 3.33333 14.1426 3.58762 14.1652 3.91533L14.9985 15.9987C15.0104 16.1715 14.9501 16.3415 14.8319 16.4681C14.7137 16.5948 14.5482 16.6667 14.375 16.6667H0.625001C0.451772 16.6667 0.286312 16.5948 0.168109 16.4681C0.0499065 16.3415 -0.010436 16.1715 0.00148254 15.9987L0.834816 3.91533C0.857417 3.58762 1.12985 3.33333 1.45833 3.33333H3.59068C3.89016 1.44368 5.52583 0 7.5 0C9.47417 0 11.1098 1.44368 11.4093 3.33333ZM4.86405 3.33333H10.136C9.85402 2.13846 8.78135 1.25 7.5 1.25C6.21865 1.25 5.14598 2.13846 4.86405 3.33333ZM10.2083 6.04167V4.58333H4.79167V6.04167C4.79167 6.38684 4.51184 6.66667 4.16667 6.66667C3.82149 6.66667 3.54167 6.38684 3.54167 6.04167V4.58333H2.04172L1.29459 15.4167H13.7054L12.9583 4.58333H11.4583V6.04167C11.4583 6.38684 11.1785 6.66667 10.8333 6.66667C10.4882 6.66667 10.2083 6.38684 10.2083 6.04167Z" fill="var(--fill-0, white)"/>
</svg>
