<svg preserveAspectRatio="none" width="100%" height="100%" overflow="visible" style="display: block;" viewBox="0 0 1.83573 1.83573" fill="none" xmlns="http://www.w3.org/2000/svg">
<path id="Star 2" d="M0.804872 0.0786684C0.843685 -0.0262227 0.992042 -0.0262228 1.03085 0.0786683L1.20777 0.556776C1.21997 0.589753 1.24597 0.615754 1.27895 0.627957L1.75706 0.804872C1.86195 0.843685 1.86195 0.992042 1.75706 1.03085L1.27895 1.20777C1.24597 1.21997 1.21997 1.24597 1.20777 1.27895L1.03086 1.75706C0.992042 1.86195 0.843685 1.86195 0.804872 1.75706L0.627957 1.27895C0.615754 1.24597 0.589753 1.21997 0.556776 1.20777L0.0786684 1.03086C-0.0262227 0.992042 -0.0262228 0.843685 0.0786683 0.804872L0.556776 0.627957C0.589753 0.615754 0.615754 0.589753 0.627957 0.556776L0.804872 0.0786684Z" fill="var(--fill-0, white)"/>
</svg>
