<svg preserveAspectRatio="none" width="100%" height="100%" overflow="visible" style="display: block;" viewBox="0 0 14.4693 10.1539" fill="none" xmlns="http://www.w3.org/2000/svg">
<g id="Group 3">
<path id="Path" d="M7.24245 7.04635C7.89179 7.04635 8.52273 7.21698 9.07867 7.54233L9.30392 7.67416C9.47469 7.7741 9.50473 8.00799 9.36471 8.14762L7.44149 10.0655C7.32336 10.1833 7.13183 10.1833 7.0137 10.0655L5.10283 8.15994C4.96344 8.02093 4.99249 7.78823 5.16182 7.68755L5.38454 7.55512C5.94559 7.22154 6.58454 7.04635 7.24245 7.04635Z" fill="var(--fill-0, black)"/>
<path id="Path_2" d="M7.24241 3.52324C8.85772 3.52324 10.4086 4.0591 11.6721 5.05146L11.8506 5.19171C11.993 5.30352 12.0055 5.5142 11.8774 5.64198L10.7292 6.78697C10.623 6.89287 10.4549 6.90504 10.3345 6.81554L10.1946 6.71152C9.34124 6.07733 8.31229 5.73714 7.24241 5.73714C6.16594 5.73714 5.13098 6.08156 4.27483 6.72302L4.13472 6.828C4.01429 6.91823 3.84564 6.90635 3.73912 6.80013L2.59137 5.65557C2.46351 5.52806 2.47565 5.31791 2.61735 5.20588L2.79489 5.06552C4.06133 4.06432 5.61931 3.52324 7.24241 3.52324Z" fill="var(--fill-0, black)"/>
<path id="Path_3" d="M7.24246 5.84126e-06C9.80599 5.84126e-06 12.2575 0.90428 14.1979 2.56177L14.3635 2.70324C14.4974 2.81758 14.5053 3.02136 14.3806 3.14564L13.2362 4.28691C13.1253 4.39748 12.9481 4.40523 12.8279 4.30476L12.6862 4.18627C11.1585 2.9088 9.24361 2.21391 7.24246 2.21391C5.23449 2.21391 3.31348 2.91359 1.78344 4.19904L1.64168 4.31814C1.52155 4.41906 1.34395 4.41151 1.23288 4.30075L0.0885997 3.15964C-0.03585 3.03554 -0.028191 2.8321 0.10524 2.71765L0.270237 2.57612C2.21306 0.90968 4.67134 5.84126e-06 7.24246 5.84126e-06Z" fill="var(--fill-0, black)"/>
</g>
</svg>
