<svg preserveAspectRatio="none" width="100%" height="100%" overflow="visible" style="display: block;" viewBox="0 0 18 16" fill="none" xmlns="http://www.w3.org/2000/svg">
<g id="icon">
<path fill-rule="evenodd" clip-rule="evenodd" d="M8.53033 15.7803C8.23744 16.0732 7.76256 16.0732 7.46967 15.7803L0.219669 8.53033C-0.0732231 8.23744 -0.0732231 7.76256 0.219669 7.46967L7.46967 0.21967C7.76256 -0.0732234 8.23744 -0.0732234 8.53033 0.21967C8.82322 0.512563 8.82322 0.987437 8.53033 1.28033L1.81066 8L8.53033 14.7197C8.82322 15.0126 8.82322 15.4874 8.53033 15.7803Z" fill="#282C3F"/>
<path fill-rule="evenodd" clip-rule="evenodd" d="M18 8C18 8.41421 17.6642 8.75 17.25 8.75H0.75C0.335787 8.75 0 8.41421 0 8C0 7.58579 0.335787 7.25 0.75 7.25H17.25C17.6642 7.25 18 7.58579 18 8Z" fill="#282C3F"/>
</g>
</svg>
