<svg preserveAspectRatio="none" width="100%" height="100%" overflow="visible" style="display: block;" viewBox="0 0 2.53505 2.53505" fill="none" xmlns="http://www.w3.org/2000/svg">
<path id="Star 4" d="M1.11149 0.108637C1.16509 -0.0362124 1.36996 -0.0362124 1.42356 0.108637L1.66787 0.768881C1.68472 0.814421 1.72063 0.850327 1.76617 0.867178L2.42641 1.11149C2.57126 1.16509 2.57126 1.36996 2.42641 1.42356L1.76617 1.66787C1.72063 1.68472 1.68472 1.72063 1.66787 1.76617L1.42356 2.42641C1.36996 2.57126 1.16509 2.57126 1.11149 2.42641L0.867178 1.76617C0.850327 1.72063 0.814421 1.68472 0.768881 1.66787L0.108637 1.42356C-0.0362124 1.36996 -0.0362124 1.16509 0.108637 1.11149L0.768881 0.867178C0.814421 0.850327 0.850327 0.814421 0.867178 0.768881L1.11149 0.108637Z" fill="var(--fill-0, white)"/>
</svg>
