<svg preserveAspectRatio="none" width="100%" height="100%" overflow="visible" style="display: block;" viewBox="0 0 16.6667 15.0003" fill="none" xmlns="http://www.w3.org/2000/svg">
<path id="icon" fill-rule="evenodd" clip-rule="evenodd" d="M8.3318 1.59873C9.22401 0.580267 10.496 -0.0144975 11.8453 0.000268808C14.5551 0.00237747 16.6667 2.34083 16.6667 5.1336C16.6667 6.26155 16.2494 7.36101 15.6422 8.36952C15.0334 9.38076 14.2112 10.3378 13.3454 11.1929C11.6144 12.9026 9.64722 14.2646 8.67475 14.8988C8.46725 15.0341 8.19941 15.0341 7.99192 14.8988C7.01944 14.2646 5.0523 12.9026 3.32123 11.1929C2.45546 10.3378 1.6333 9.38076 1.02445 8.36952C0.417253 7.36101 0 6.26155 0 5.1336C0 2.34083 2.1116 0.00237727 4.82133 0.000268808C6.17256 -0.0145191 7.43817 0.581602 8.3318 1.59873ZM7.79679 2.97914C7.13688 1.87451 6.0124 1.23634 4.83235 1.25022L4.825 1.25031V1.25027C2.88649 1.25027 1.25 2.9443 1.25 5.1336C1.25 5.95565 1.5567 6.83015 2.09534 7.72476C2.63232 8.61665 3.37787 9.49192 4.1996 10.3035C5.66406 11.7499 7.32142 12.9464 8.33333 13.6258C9.34524 12.9464 11.0026 11.7499 12.4671 10.3035C13.2888 9.49192 14.0343 8.61665 14.5713 7.72476C15.11 6.83015 15.4167 5.95565 15.4167 5.1336C15.4167 2.9443 13.7802 1.25027 11.8417 1.25027H11.8343V1.25022C10.6524 1.23632 9.52173 1.87602 8.87141 2.97656C8.75924 3.16639 8.55533 3.28307 8.33483 3.2836C8.11433 3.28413 7.90987 3.16843 7.79679 2.97914Z" fill="var(--fill-0, #FF3F6C)"/>
</svg>
