<svg preserveAspectRatio="none" width="100%" height="100%" overflow="visible" style="display: block;" viewBox="0 0 51.6946 51.6946" fill="none" xmlns="http://www.w3.org/2000/svg">
<path id="Star 1" d="M21.369 3.24145C22.7904 -1.08049 28.9042 -1.08048 30.3256 3.24146L34.0682 14.621C34.5359 16.0432 35.6514 17.1587 37.0736 17.6265L48.4532 21.369C52.7751 22.7904 52.7751 28.9042 48.4532 30.3256L37.0736 34.0682C35.6514 34.5359 34.5359 35.6514 34.0682 37.0736L30.3256 48.4532C28.9042 52.7751 22.7904 52.7751 21.369 48.4532L17.6265 37.0736C17.1587 35.6514 16.0432 34.5359 14.621 34.0682L3.24145 30.3256C-1.08049 28.9042 -1.08048 22.7904 3.24146 21.369L14.621 17.6265C16.0432 17.1587 17.1587 16.0432 17.6265 14.621L21.369 3.24145Z" fill="url(#paint0_linear_0_78)" fill-opacity="0.17"/>
<defs>
<linearGradient id="paint0_linear_0_78" x1="26.8535" y1="-3.33205" x2="25.8473" y2="62.07" gradientUnits="userSpaceOnUse">
<stop stop-color="#8270DB" stop-opacity="0.08"/>
<stop offset="1" stop-color="#280ABB"/>
</linearGradient>
</defs>
</svg>
