<svg preserveAspectRatio="none" width="100%" height="100%" overflow="visible" style="display: block;" viewBox="0 0 12 13.3333" fill="none" xmlns="http://www.w3.org/2000/svg">
<path id="icon" fill-rule="evenodd" clip-rule="evenodd" d="M9.12745 2.66667H10.8333C11.0961 2.66667 11.3141 2.8701 11.3321 3.13227L11.9988 12.7989C12.0084 12.9372 11.9601 13.0732 11.8655 13.1745C11.771 13.2758 11.6386 13.3333 11.5 13.3333H0.500001C0.361418 13.3333 0.22905 13.2758 0.134488 13.1745C0.0399252 13.0732 -0.00834881 12.9372 0.00118603 12.7989L0.667853 3.13227C0.685933 2.8701 0.903877 2.66667 1.16667 2.66667H2.87255C3.11213 1.15494 4.42067 0 6 0C7.57933 0 8.88787 1.15494 9.12745 2.66667ZM3.89124 2.66667H8.10876C7.88322 1.71077 7.02508 1 6 1C4.97492 1 4.11678 1.71077 3.89124 2.66667ZM8.16667 4.83333V3.66667H3.83333V4.83333C3.83333 5.10948 3.60948 5.33333 3.33333 5.33333C3.05719 5.33333 2.83333 5.10948 2.83333 4.83333V3.66667H1.63337L1.03567 12.3333H10.9643L10.3666 3.66667H9.16667V4.83333C9.16667 5.10948 8.94281 5.33333 8.66667 5.33333C8.39052 5.33333 8.16667 5.10948 8.16667 4.83333Z" fill="var(--fill-0, #FF3F6C)"/>
</svg>
