<svg preserveAspectRatio="none" width="100%" height="100%" overflow="visible" style="display: block;" viewBox="0 0 8.839 8.839" fill="none" xmlns="http://www.w3.org/2000/svg">
<path id="Star 4" d="M3.87545 0.378787C4.06234 -0.126262 4.77667 -0.126263 4.96355 0.378787L5.8154 2.68087C5.87416 2.83965 5.99935 2.96485 6.15814 3.0236L8.46022 3.87545C8.96527 4.06234 8.96527 4.77667 8.46022 4.96355L6.15814 5.8154C5.99935 5.87416 5.87416 5.99935 5.8154 6.15814L4.96355 8.46022C4.77667 8.96527 4.06234 8.96527 3.87545 8.46022L3.0236 6.15814C2.96485 5.99935 2.83965 5.87416 2.68087 5.8154L0.378787 4.96355C-0.126262 4.77667 -0.126263 4.06234 0.378787 3.87545L2.68087 3.0236C2.83965 2.96485 2.96485 2.83965 3.0236 2.68087L3.87545 0.378787Z" fill="var(--fill-0, #FFF5F8)"/>
</svg>
