<svg preserveAspectRatio="none" width="100%" height="100%" overflow="visible" style="display: block;" viewBox="0 0 15 15" fill="none" xmlns="http://www.w3.org/2000/svg">
<g id="Group">
<path id="Path" d="M13.1593 8.58583C13.1593 11.7006 10.6156 14.0727 7.47791 14.0727C4.34026 14.0727 1.79883 11.6984 1.79883 8.58355C1.79883 5.46873 4.34256 2.9458 7.48021 2.9458C10.6179 2.9458 13.1593 5.47102 13.1593 8.58583Z" fill="var(--fill-0, #FFC30D)"/>
<path id="Path_2" d="M14.1712 10.7598C12.2881 14.5305 7.90737 16.0547 4.20111 14.2311C0.464934 12.3914 -1.06591 7.87805 0.787217 4.17136C2.63804 0.462374 7.18453 -1.05733 10.9207 0.780026C14.627 2.60595 16.0542 6.98909 14.1712 10.7598Z" fill="url(#paint0_linear_0_363)"/>
<path id="Path_3" opacity="0.438686" d="M7.47941 1.5249C3.97574 1.5249 1.12354 4.35406 1.12354 7.83223C1.12354 11.2624 3.91358 13.9522 7.47711 13.9522C11.0406 13.9522 13.833 11.2647 13.833 7.83451C13.833 4.35634 10.9831 1.5249 7.47941 1.5249Z" fill="var(--fill-0, white)"/>
<path id="Path_4" d="M7.53215 1.18506C4.02847 1.18506 1.17627 4.01421 1.17627 7.49239C1.17627 10.9226 3.96632 13.6123 7.52985 13.6123C11.0934 13.6123 13.8857 10.9249 13.8857 7.49467C13.8857 4.0165 11.0358 1.18506 7.53215 1.18506Z" fill="var(--fill-0, #F0A700)"/>
<path id="Path_5" d="M7.47941 1.40918C3.97574 1.40918 1.12354 4.23834 1.12354 7.71651C1.12354 11.1467 3.91358 13.8364 7.47711 13.8364C11.0406 13.8364 13.833 11.149 13.833 7.71879C13.833 4.24062 10.9831 1.41146 7.47941 1.40918Z" fill="var(--fill-0, #FFC000)"/>
</g>
<defs>
<linearGradient id="paint0_linear_0_363" x1="10.8458" y1="17.5496" x2="17.5649" y2="4.09951" gradientUnits="userSpaceOnUse">
<stop stop-color="#F8C51D"/>
<stop offset="0.4111" stop-color="#FBDD35"/>
<stop offset="0.7344" stop-color="#F8BF22"/>
<stop offset="0.7391" stop-color="#F8BF22"/>
<stop offset="1" stop-color="#FEEF4A"/>
</linearGradient>
</defs>
</svg>
