<svg preserveAspectRatio="none" width="100%" height="100%" overflow="visible" style="display: block;" viewBox="0 0 8.65414 8.65414" fill="none" xmlns="http://www.w3.org/2000/svg">
<path id="Star 1" d="M4.06122 0.469423C4.1528 0.222333 4.50198 0.222231 4.59345 0.469423L5.42743 2.72333C5.51366 2.95635 5.69741 3.13989 5.93036 3.22626L8.18427 4.06122C8.43151 4.15271 8.43151 4.50196 8.18427 4.59345L5.93036 5.42743C5.69746 5.51373 5.51373 5.69747 5.42743 5.93036L4.59345 8.18427C4.50196 8.43151 4.15271 8.43151 4.06122 8.18427L3.22626 5.93036C3.13989 5.69741 2.95635 5.51366 2.72333 5.42743L0.469423 4.59345C0.22223 4.50198 0.222334 4.1528 0.469423 4.06122L2.72333 3.22626C2.95643 3.13996 3.13996 2.95643 3.22626 2.72333L4.06122 0.469423Z" fill="var(--fill-0, white)" stroke="var(--stroke-0, white)" stroke-width="0.567972"/>
</svg>
