<svg preserveAspectRatio="none" width="100%" height="100%" overflow="visible" style="display: block;" viewBox="0 0 25.3846 12" fill="none" xmlns="http://www.w3.org/2000/svg">
<path id="Battery Frame" opacity="0.4" fill-rule="evenodd" clip-rule="evenodd" d="M5.16895 12H17.9072C19.7165 12 20.6214 11.9995 21.3125 11.6475C21.8446 11.3763 22.2902 10.9643 22.6006 10.458L22.7246 10.2363C22.9887 9.71805 23.0548 9.07929 23.0713 8.0293L23.0771 6.83105V5.16895C23.0771 3.35974 23.0767 2.45474 22.7246 1.76367C22.4149 1.15593 21.9203 0.662223 21.3125 0.352539C20.6214 0.000481431 19.7165 0 17.9072 0H5.16895C3.35974 0 2.45474 0.00042483 1.76367 0.352539L1.54199 0.476562C1.03585 0.786905 0.623647 1.2318 0.352539 1.76367L0.290039 1.89648C0 2.57188 0 3.47297 0 5.16889V5.16895V6.83105L0.00585938 8.0293C0.0223739 9.07929 0.0884659 9.71806 0.352539 10.2363L0.476562 10.458C0.786905 10.9642 1.2318 11.3764 1.76367 11.6475C2.45473 11.9996 3.35974 12 5.16895 12ZM17.9072 11.0771H5.16895C4.24917 11.0771 3.61445 11.0764 3.12207 11.0361C2.64064 10.9968 2.3763 10.9239 2.18262 10.8252C1.74876 10.604 1.39599 10.2512 1.1748 9.81738C1.07612 9.6237 1.00323 9.35936 0.963867 8.87793C0.923638 8.38555 0.922852 7.75083 0.922852 6.83105V5.16895C0.922852 4.24917 0.923638 3.61445 0.963867 3.12207C1.00323 2.64064 1.07612 2.3763 1.1748 2.18262C1.39599 1.74876 1.74876 1.39599 2.18262 1.1748C2.3763 1.07612 2.64064 1.00323 3.12207 0.963867C3.61445 0.923638 4.24917 0.922852 5.16895 0.922852H17.9072C18.8269 0.922852 19.4617 0.923666 19.9541 0.963867C20.4356 1.00321 20.6998 1.07613 20.8936 1.1748C21.3277 1.39599 21.6811 1.74857 21.9023 2.18262C22.001 2.37631 22.0739 2.64063 22.1133 3.12207C22.1535 3.61445 22.1543 4.24917 22.1543 5.16895V6.83105C22.1543 7.75083 22.1535 8.38555 22.1133 8.87793C22.0739 9.35937 22.001 9.62369 21.9023 9.81738C21.6811 10.2514 21.3277 10.604 20.8936 10.8252C20.6998 10.9239 20.4356 10.9968 19.9541 11.0361C19.4617 11.0763 18.8269 11.0771 17.9072 11.0771ZM24 7.84615C24.7647 7.66154 25.3846 7.0196 25.3846 6C25.3846 4.9804 24.7647 4.33846 24 4.15385L24 6L24 7.84615Z" fill="var(--fill-0, black)"/>
</svg>
