<svg preserveAspectRatio="none" width="100%" height="100%" overflow="visible" style="display: block;" viewBox="0 0 20 18.0003" fill="none" xmlns="http://www.w3.org/2000/svg">
<path id="icon" fill-rule="evenodd" clip-rule="evenodd" d="M9.99816 1.91847C11.0688 0.696321 12.5952 -0.017397 14.2144 0.000322569C17.4661 0.00285297 20 2.809 20 6.16032C20 7.51386 19.4993 8.83322 18.7707 10.0434C18.04 11.2569 17.0534 12.4053 16.0145 13.4314C13.9372 15.4831 11.5767 17.1175 10.4097 17.8785C10.1607 18.0409 9.8393 18.0409 9.5903 17.8785C8.42333 17.1175 6.06276 15.4831 3.98547 13.4314C2.94656 12.4053 1.95996 11.2569 1.22935 10.0434C0.500704 8.83322 0 7.51386 0 6.16032C0 2.809 2.53393 0.00285273 5.7856 0.000322569C7.40708 -0.0174229 8.9258 0.697922 9.99816 1.91847ZM9.35614 3.57496C8.56426 2.24942 7.21488 1.48361 5.79882 1.50027L5.79 1.50037V1.50032C3.46379 1.50032 1.5 3.53316 1.5 6.16032C1.5 7.14678 1.86805 8.19617 2.5144 9.26972C3.15879 10.34 4.05344 11.3903 5.03953 12.3642C6.79687 14.0999 8.78571 15.5357 10 16.3509C11.2143 15.5357 13.2031 14.0999 14.9605 12.3642C15.9466 11.3903 16.8412 10.34 17.4856 9.26972C18.132 8.19617 18.5 7.14678 18.5 6.16032C18.5 3.53316 16.5362 1.50032 14.21 1.50032H14.2012V1.50027C12.7829 1.48358 11.4261 2.25122 10.6457 3.57187C10.5111 3.79967 10.2664 3.93968 10.0018 3.94032C9.7372 3.94095 9.49185 3.80211 9.35614 3.57496Z" fill="var(--fill-0, #282C3F)"/>
</svg>
