<svg preserveAspectRatio="none" width="100%" height="100%" overflow="visible" style="display: block;" viewBox="0 0 18 18" fill="none" xmlns="http://www.w3.org/2000/svg">
<path id="icon" fill-rule="evenodd" clip-rule="evenodd" d="M7.5 0C3.35579 0 0 3.35579 0 7.5C0 11.6442 3.35579 15 7.5 15C9.30181 15 10.9546 14.3657 12.2473 13.308L16.7197 17.7803C17.0126 18.0732 17.4875 18.0732 17.7803 17.7803C18.0732 17.4875 18.0732 17.0126 17.7803 16.7197L13.308 12.2473C14.3657 10.9546 15 9.30181 15 7.5C15 3.35579 11.6442 0 7.5 0ZM11.8026 11.6834C12.8533 10.6029 13.5 9.12754 13.5 7.5C13.5 4.18421 10.8158 1.5 7.5 1.5C4.18421 1.5 1.5 4.18421 1.5 7.5C1.5 10.8158 4.18421 13.5 7.5 13.5C9.12754 13.5 10.6029 12.8533 11.6834 11.8026C11.7008 11.7809 11.7195 11.7598 11.7397 11.7397C11.7598 11.7195 11.7809 11.7008 11.8026 11.6834Z" fill="var(--fill-0, #282C3F)"/>
</svg>
