<svg preserveAspectRatio="none" width="100%" height="100%" overflow="visible" style="display: block;" viewBox="0 0 12.0405 12.0405" fill="none" xmlns="http://www.w3.org/2000/svg">
<path id="Star 1" d="M5.64988 0.652813C5.77733 0.309189 6.26375 0.309094 6.39109 0.652813L7.55125 3.78855C7.67131 4.113 7.927 4.36967 8.25145 4.48973L11.3872 5.64988C11.7312 5.77717 11.7312 6.26381 11.3872 6.39109L8.25145 7.55125C7.92707 7.67131 7.67131 7.92707 7.55125 8.25145L6.39109 11.3872C6.26381 11.7312 5.77717 11.7312 5.64988 11.3872L4.48973 8.25145C4.36967 7.927 4.113 7.67131 3.78855 7.55125L0.652813 6.39109C0.309096 6.26375 0.309188 5.77733 0.652813 5.64988L3.78855 4.48973C4.113 4.36967 4.36967 4.113 4.48973 3.78855L5.64988 0.652813Z" fill="var(--fill-0, white)" stroke="var(--stroke-0, white)" stroke-width="0.790222"/>
</svg>
