<svg preserveAspectRatio="none" width="100%" height="100%" overflow="visible" style="display: block;" viewBox="0 0 35.3573 23.6372" fill="none" xmlns="http://www.w3.org/2000/svg">
<g id="logo">
<g id="Vector">
<path d="M7.39554 14.7839C7.49254 14.8606 7.57588 14.9003 7.65239 14.9003C7.83274 14.9003 7.94204 14.6552 7.98713 14.1145H8.28907C8.25081 14.8168 8.23715 15.7504 8.23715 17.411H7.93521C7.81361 16.142 7.60184 15.3123 6.72061 14.7319C6.35445 14.4937 5.93091 14.339 5.49918 14.339C3.48122 14.339 3.02489 16.8306 3.02489 18.8074C3.02489 20.7842 3.48122 23.2758 5.49918 23.2758C5.92955 23.2758 6.35445 23.1211 6.72061 22.8829C7.60048 22.3422 7.81225 21.4605 7.93521 20.0244H8.23715C8.23715 21.7494 8.24945 22.7214 8.28907 23.4497H7.98713C7.94204 22.9089 7.85187 22.6707 7.66606 22.6707C7.59501 22.6707 7.50484 22.7091 7.39691 22.7802C6.74793 23.2375 6.09213 23.6372 4.96087 23.6372C1.98517 23.6372 0 21.8794 0 18.8594C0 15.8394 2.04938 13.9283 4.97317 13.9283C6.13039 13.9283 6.81761 14.3403 7.39554 14.7839Z" fill="#262A39"/>
<path d="M13.9959 14.3774C13.1024 14.4157 12.9289 14.5512 12.9289 15.5109V22.3162C12.9289 23.0431 13.0382 23.1472 13.6038 23.1472H14.041C14.9605 23.1472 16.2899 21.5893 16.5918 19.889H16.8938C16.8678 20.2038 16.8555 20.6296 16.8555 21.0992C16.8555 21.5687 16.8555 22.5284 16.9457 23.4497C16.0521 23.4114 14.813 23.4114 13.9317 23.4114C12.9876 23.4114 10.8535 23.4114 9.32471 23.4497V23.1855C10.1281 23.1472 10.2633 23.0116 10.2633 22.052V15.5109C10.2633 14.5512 10.1158 14.4157 9.32471 14.3774V14.1131C9.82613 14.1392 10.7197 14.1515 11.6706 14.1515C12.5381 14.1515 13.4576 14.1392 13.9973 14.1131V14.3774H13.9959Z" fill="#262A39"/>
<path d="M25.6214 22.3421C25.8591 22.9472 26.1611 23.1731 26.3988 23.1854V23.4496C25.7621 23.4236 24.8699 23.4113 24.0024 23.4113C23.1348 23.4113 22.2604 23.4236 21.7918 23.4496V23.1854C22.4148 23.1594 22.7167 23.0635 22.7167 22.7021C22.7167 22.5474 22.6593 22.3475 22.5555 22.0779L21.7713 19.9148H19.118L18.8926 20.5076C18.5975 21.2797 18.469 21.8342 18.469 22.2271C18.469 22.9992 18.9582 23.1607 19.6577 23.1867V23.451C19.0019 23.425 18.5401 23.4126 17.9362 23.4126C17.5892 23.4126 17.1848 23.425 16.9211 23.451V23.1867C17.3255 23.1224 17.7108 22.7363 18.1288 21.6411L21.0526 14.1144C21.2644 14.1335 21.509 14.1404 21.7467 14.1404C21.9844 14.1404 22.229 14.1335 22.4339 14.1144L25.6214 22.3434V22.3421ZM20.487 16.3541L19.2205 19.6506H21.6811L20.4856 16.3541H20.487Z" fill="#262A39"/>
<path d="M35.3573 14.3772C34.554 14.5511 34.4255 14.944 34.4255 16.4307V23.4482C34.2971 23.4359 34.1496 23.4291 33.9952 23.4291C33.8408 23.4291 33.6741 23.4359 33.5006 23.4482L27.6721 17.0673V20.8663C27.6721 22.6309 27.7486 23.0102 29.0029 23.184V23.4482C28.649 23.4222 28.0137 23.4099 27.5246 23.4099C27.1325 23.4099 26.6953 23.4222 26.4316 23.4482V23.184C27.2349 23.0102 27.3702 22.6173 27.3702 21.1305V15.5094C27.3702 14.5497 27.2226 14.4142 26.4316 14.3759V14.1117C26.6953 14.1377 27.1325 14.15 27.5246 14.15C27.9618 14.15 28.4113 14.1377 28.7392 14.1117L34.1181 19.8094V16.6936C34.1181 14.929 34.0403 14.5497 32.7942 14.3759V14.1117C33.1481 14.1377 33.7779 14.15 34.2657 14.15C34.6578 14.15 35.095 14.1377 35.3573 14.1117V14.3772Z" fill="#262A39"/>
<path d="M6.96521 4.88656C7.04644 4.96395 7.1293 4.99853 7.20404 4.99853C7.36814 4.99853 7.45587 4.76799 7.50136 4.27068H7.77594C7.7402 4.9162 7.72883 5.77413 7.72883 7.30229H7.45425C7.34377 6.13641 7.13905 5.38386 6.34943 4.8388C6.01636 4.60826 5.53707 4.47817 5.11627 4.47817C3.27545 4.47817 2.75066 6.7704 2.75066 8.58837C2.75066 11.5014 3.51591 12.7875 4.67272 12.7875C4.92942 12.7875 5.11627 12.7397 5.26249 12.6393C5.43146 12.5207 5.51432 12.3248 5.51432 12.0349V10.8213C5.51432 9.64392 5.30961 9.4529 4.30553 9.41173V9.16966C4.84331 9.1993 5.87176 9.21083 6.58989 9.21083C7.35514 9.21083 8.02778 9.1993 8.43558 9.16966V9.41173C8.02615 9.4529 7.94492 9.55993 7.94492 10.4541V12.8583H7.70608C7.69471 12.58 7.58423 12.165 7.33239 12.165C7.20404 12.165 7.0107 12.2013 6.52003 12.4433C5.89451 12.7513 5.18288 13.0296 4.49887 13.0296C1.49637 13.0296 0 11.401 0 8.63613C0 5.87129 1.91068 4.10107 4.6386 4.10107C5.75478 4.10107 6.4258 4.45676 6.96358 4.8882L6.96521 4.88656Z" fill="#262A39"/>
<path d="M13.1944 4.51275C12.382 4.54898 12.2244 4.67248 12.2244 5.55512V11.8143C12.2244 12.4829 12.3236 12.5784 12.8386 12.5784H13.2367C14.0718 12.5784 15.2822 11.1457 15.5568 9.58134H15.8313C15.8086 9.87116 15.7956 10.2631 15.7956 10.6945C15.7956 11.126 15.7956 12.0086 15.8768 12.8567C15.0645 12.8204 13.9369 12.8204 13.1359 12.8204C12.2764 12.8204 10.3381 12.8204 8.94737 12.8567V12.6146C9.67688 12.5784 9.80035 12.4549 9.80035 11.5722V5.55677C9.80035 4.67413 9.6655 4.55063 8.94737 4.5144V4.27233C9.4023 4.29539 10.2147 4.30856 11.079 4.30856C11.867 4.30856 12.7037 4.29703 13.1944 4.27233V4.5144V4.51275Z" fill="#262A39"/>
<path d="M23.7649 11.839C23.981 12.3956 24.2556 12.6031 24.4716 12.6146V12.8567C23.8932 12.8336 23.0809 12.8204 22.2929 12.8204C21.5049 12.8204 20.7088 12.832 20.2831 12.8567V12.6146C20.8501 12.5915 21.1247 12.5026 21.1247 12.17C21.1247 12.0284 21.0727 11.8439 20.9785 11.5953L20.2652 9.60604H17.8525L17.6478 10.1511C17.3797 10.8625 17.2627 11.3713 17.2627 11.7319C17.2627 12.4433 17.7063 12.5899 18.3432 12.6146V12.8567C17.7469 12.8336 17.3261 12.8204 16.7769 12.8204C16.4617 12.8204 16.0929 12.832 15.8541 12.8567V12.6146C16.2229 12.5553 16.5722 12.1996 16.9524 11.1935L19.6105 4.27068C19.8038 4.2888 20.0248 4.29374 20.2409 4.29374C20.4569 4.29374 20.6795 4.28715 20.8664 4.27068L23.7649 11.839ZM19.097 6.33072L17.9467 9.36233H20.184L19.097 6.33072Z" fill="#262A39"/>
<path d="M35.3573 4.51275C34.6278 4.54898 34.5108 4.67248 34.5108 5.55512V11.5706C34.5108 12.4532 34.6392 12.5767 35.3573 12.6129V12.855C34.8666 12.832 34.0315 12.8188 33.237 12.8188C32.3776 12.8188 31.5668 12.8303 31.1103 12.855V12.6129C31.9226 12.5767 32.0802 12.4532 32.0802 11.5706V5.35916L29.1947 12.8435H29.0014L25.6301 5.05617V10.4804C25.6301 12.1025 25.6999 12.4516 26.8389 12.6113V12.8534C26.5172 12.8303 25.9388 12.8171 25.4952 12.8171C25.1394 12.8171 24.7413 12.8287 24.5025 12.8534V12.6113C25.2336 12.4516 25.3555 12.0909 25.3555 10.7225V5.55347C25.3555 4.67084 25.2206 4.54733 24.5025 4.5111V4.26904C24.7413 4.29209 25.1394 4.30527 25.4952 4.30527C26.4181 4.30527 27.2824 4.29374 27.9729 4.26904L30.2345 9.41996L32.1972 4.30362H33.237C34.0315 4.30362 34.8666 4.29209 35.3573 4.26739V4.51275Z" fill="#262A39"/>
<path d="M4.85091 1.31908C4.85091 2.07657 4.41377 2.5113 3.71367 2.5113C3.01358 2.5113 2.58136 2.07657 2.58136 1.31908V0.0148837H3.19107V1.32896C3.19107 1.70277 3.39485 1.94319 3.71367 1.94319C4.0325 1.94319 4.24121 1.70277 4.24121 1.32896V0.0148837H4.85091V1.31908Z" fill="var(--fill-0, #FF701F)"/>
<path d="M7.10736 2.45696V0.0148837H7.71377V1.92178H8.9184V2.45696H7.10736Z" fill="var(--fill-0, #FF701F)"/>
<path d="M11.8404 0.556653V2.45696H11.234V0.556653H10.4566V0.0148837H12.6144V0.556653H11.8404Z" fill="var(--fill-0, #FF701F)"/>
<path d="M15.3539 2.45696H14.7475V0.0148837H15.3539V2.45696Z" fill="var(--fill-0, #FF701F)"/>
<path d="M20.2793 2.45696H19.6729V1.23181L19.1305 2.06834V2.07163H18.7936V2.06834L18.248 1.22357L18.2513 2.45531H17.6449V0.0148837H18.0935L18.9613 1.31908L19.8273 0.0148837H20.2793V2.45696Z" fill="var(--fill-0, #FF701F)"/>
<path d="M23.2062 2.03699L23.0451 2.4569H22.3992L23.4362 0H24.0131L25.0451 2.4569H24.4042L24.2399 2.03699H23.2062ZM23.7205 0.708087L23.405 1.51992H24.0361L23.7205 0.708087Z" fill="var(--fill-0, #FF701F)"/>
<path d="M28.0246 0.556653V2.45696H27.4182V0.556653H26.6409V0.0148837H28.7987V0.556653H28.0246Z" fill="var(--fill-0, #FF701F)"/>
<path d="M31.54 0.988092H32.6197V1.50516H31.54V1.92837H32.7774V2.45696H30.9352V0.0148837H32.7774V0.543479H31.54V0.988092Z" fill="var(--fill-0, #FF701F)"/>
<path d="M15.7193 4.99253L15.8797 6.09262C15.9337 6.46337 16.2249 6.75457 16.5957 6.80862L17.6958 6.969L16.5957 7.12937C16.2249 7.18342 15.9337 7.47462 15.8797 7.84537L15.7193 8.94547L15.559 7.84537C15.5049 7.47462 15.2137 7.18342 14.8429 7.12937L13.7429 6.969L14.8429 6.80862C15.2137 6.75457 15.5049 6.46337 15.559 6.09262L15.7193 4.99253Z" fill="var(--fill-0, #FF701F)"/>
</g>
</g>
</svg>
