<svg preserveAspectRatio="none" width="100%" height="100%" overflow="visible" style="display: block;" viewBox="0 0 14 13.9975" fill="none" xmlns="http://www.w3.org/2000/svg">
<path id="icon" d="M8.06038 6.9975L13.7824 1.2775C14.0725 0.9875 14.0725 0.5075 13.7824 0.2175C13.4923 -0.0725 13.0121 -0.0725 12.722 0.2175L7 5.9375L1.27796 0.2175C0.987853 -0.0725 0.507681 -0.0725 0.217578 0.2175C-0.0725259 0.5075 -0.0725259 0.9875 0.217578 1.2775L5.93962 6.9975L0.217578 12.7175C-0.0725259 13.0075 -0.0725259 13.4875 0.217578 13.7775C0.367631 13.9275 0.557699 13.9975 0.747767 13.9975C0.937835 13.9975 1.1279 13.9275 1.27796 13.7775L7 8.0575L12.722 13.7775C12.8721 13.9275 13.0622 13.9975 13.2522 13.9975C13.4423 13.9975 13.6324 13.9275 13.7824 13.7775C14.0725 13.4875 14.0725 13.0075 13.7824 12.7175L8.06038 6.9975Z" fill="var(--fill-0, #262A39)"/>
</svg>
