<svg preserveAspectRatio="xMidYMid meet" width="15" height="15" overflow="visible" style="display: block;" viewBox="0 0 15 15" fill="none" xmlns="http://www.w3.org/2000/svg">
<g id="icon">
<path fill-rule="evenodd" clip-rule="evenodd" d="M2.5 4.58333C2.5 3.42982 3.42982 2.5 4.58333 2.5C5.73684 2.5 6.66667 3.42982 6.66667 4.58333C6.66667 5.73684 5.73684 6.66667 4.58333 6.66667C3.42982 6.66667 2.5 5.73684 2.5 4.58333ZM4.58333 3.75C4.12018 3.75 3.75 4.12018 3.75 4.58333C3.75 5.04649 4.12018 5.41667 4.58333 5.41667C5.04649 5.41667 5.41667 5.04649 5.41667 4.58333C5.41667 4.12018 5.04649 3.75 4.58333 3.75Z" fill="var(--fill-0, #FF3F6C)"/>
<path fill-rule="evenodd" clip-rule="evenodd" d="M0 1.875C0 0.838155 0.838155 0 1.875 0H13.125C14.1618 0 15 0.838155 15 1.875V13.125C15 14.1618 14.1618 15 13.125 15H1.875C0.838155 15 0 14.1618 0 13.125V1.875ZM3.52549 13.75H13.125C13.4715 13.75 13.75 13.4715 13.75 13.125V9.90895L10.5583 6.71722L3.52549 13.75ZM13.75 8.14118L11.0002 5.39139C10.7561 5.14731 10.3604 5.14731 10.1163 5.39139L1.76693 13.7408C1.47238 13.6899 1.25 13.4346 1.25 13.125V1.875C1.25 1.52851 1.52851 1.25 1.875 1.25H13.125C13.4715 1.25 13.75 1.52851 13.75 1.875V8.14118Z" fill="var(--fill-0, #FF3F6C)"/>
</g>
</svg>
