<svg preserveAspectRatio="xMidYMid meet" width="16.667" height="14.167" overflow="visible" style="display: block;" viewBox="0 0 16.6667 14.1667" fill="none" xmlns="http://www.w3.org/2000/svg">
<g id="icon">
<path fill-rule="evenodd" clip-rule="evenodd" d="M8.33333 4.58333C6.48816 4.58333 5 6.07149 5 7.91667C5 9.76184 6.48816 11.25 8.33333 11.25C10.1785 11.25 11.6667 9.76184 11.6667 7.91667C11.6667 6.07149 10.1785 4.58333 8.33333 4.58333ZM6.25 7.91667C6.25 6.76185 7.17851 5.83333 8.33333 5.83333C9.48815 5.83333 10.4167 6.76185 10.4167 7.91667C10.4167 9.07149 9.48815 10 8.33333 10C7.17851 10 6.25 9.07149 6.25 7.91667Z" fill="var(--fill-0, white)"/>
<path fill-rule="evenodd" clip-rule="evenodd" d="M5.73003 0.278312C5.84595 0.104438 6.0411 0 6.25007 0H10.4167C10.6257 0 10.8208 0.104438 10.9368 0.278312L12.4179 2.5H14.7917C15.8285 2.5 16.6667 3.33816 16.6667 4.375V12.2917C16.6667 13.3285 15.8285 14.1667 14.7917 14.1667H1.875C0.838155 14.1667 0 13.3285 0 12.2917V4.375C0 3.33816 0.838155 2.5 1.875 2.5H4.24891L5.73003 0.278312ZM12.0931 3.75C11.9116 3.75264 11.7322 3.67625 11.6086 3.53154C11.5895 3.5093 11.572 3.48569 11.5562 3.4609L10.0822 1.25H6.58456L5.10581 3.46812L5.09813 3.47952C5.03618 3.56951 4.95469 3.63831 4.86317 3.68401C4.77334 3.72886 4.67385 3.75146 4.57371 3.75H1.875C1.52851 3.75 1.25 4.02851 1.25 4.375V12.2917C1.25 12.6382 1.52851 12.9167 1.875 12.9167H14.7917C15.1382 12.9167 15.4167 12.6382 15.4167 12.2917V4.375C15.4167 4.02851 15.1382 3.75 14.7917 3.75H12.0931Z" fill="var(--fill-0, white)"/>
</g>
</svg>
