<svg preserveAspectRatio="none" width="100%" height="100%" overflow="visible" style="display: block;" viewBox="0 0 3.52703 3.52703" fill="none" xmlns="http://www.w3.org/2000/svg">
<path id="Star 4" d="M1.54642 0.151147C1.62099 -0.0503828 1.90603 -0.0503822 1.98061 0.151148L2.32052 1.06975C2.34397 1.13311 2.39392 1.18306 2.45728 1.20651L3.37588 1.54642C3.57741 1.62099 3.57741 1.90603 3.37588 1.98061L2.45728 2.32052C2.39392 2.34397 2.34397 2.39392 2.32052 2.45728L1.98061 3.37588C1.90603 3.57741 1.62099 3.57741 1.54642 3.37588L1.20651 2.45728C1.18306 2.39392 1.13311 2.34397 1.06975 2.32052L0.151147 1.98061C-0.0503828 1.90603 -0.0503822 1.62099 0.151148 1.54642L1.06975 1.20651C1.13311 1.18306 1.18306 1.13311 1.20651 1.06975L1.54642 0.151147Z" fill="var(--fill-0, white)"/>
</svg>
