<svg preserveAspectRatio="none" width="100%" height="100%" overflow="visible" style="display: block;" viewBox="0 0 2.55406 2.55406" fill="none" xmlns="http://www.w3.org/2000/svg">
<path id="Star 2" d="M1.11982 0.109452C1.17382 -0.0364838 1.38023 -0.036484 1.43423 0.109452L1.68038 0.774644C1.69735 0.820526 1.73353 0.856701 1.77941 0.873679L2.4446 1.11982C2.59054 1.17382 2.59054 1.38023 2.4446 1.43423L1.77941 1.68038C1.73353 1.69735 1.69735 1.73353 1.68038 1.77941L1.43423 2.4446C1.38023 2.59054 1.17382 2.59054 1.11982 2.4446L0.873679 1.77941C0.856701 1.73353 0.820526 1.69735 0.774644 1.68038L0.109452 1.43423C-0.0364838 1.38023 -0.036484 1.17382 0.109452 1.11982L0.774644 0.873679C0.820526 0.856701 0.856701 0.820526 0.873679 0.774644L1.11982 0.109452Z" fill="var(--fill-0, white)"/>
</svg>
